<?xml version="1.0" standalone="no"?><!DOCTYPE svg PUBLIC "-//W3C//DTD SVG 1.1//EN" "http://www.w3.org/Graphics/SVG/1.1/DTD/svg11.dtd"><svg class="icon" height="512" viewBox="0 0 1024 1024" version="1.1" xmlns="http://www.w3.org/2000/svg"><path d="M512 0c283.306667 0 512 228.693333 512 512s-228.693333 512-512 512S0 795.306667 0 512 228.693333 0 512 0z" fill="#208077" /><path d="M413.013333 723.626667H614.4v88.746666s-51.2 13.653333-98.986667 13.653334c-51.2 0-98.986667-13.653333-98.986666-13.653334v-88.746666h-3.413334z" fill="#EFD0AF" /><path d="M286.72 471.04s0-10.24-17.066667-10.24c-20.48 0-30.72 20.48-34.133333 23.893333-3.413333 10.24-10.24 47.786667 17.066667 75.093334 17.066667 13.653333 44.373333 10.24 44.373333 10.24l-10.24-98.986667z m447.146667 3.413333s0-10.24 17.066666-10.24c20.48 0 34.133333 20.48 34.133334 23.893334 3.413333 10.24 10.24 47.786667-17.066667 75.093333-17.066667 13.653333-47.786667 10.24-47.786667 10.24l13.653334-98.986667z" fill="#F4DBBA" /><path d="M269.653333 341.333333s20.48 249.173333 37.546667 296.96c23.893333 64.853333 78.506667 85.333333 119.466667 105.813334 27.306667 13.653333 47.786667 20.48 85.333333 23.893333 40.96 0 51.2-6.826667 81.92-20.48 54.613333-20.48 92.16-44.373333 116.053333-92.16 20.48-40.96 40.96-300.373333 40.96-300.373333l-78.506666-98.986667L269.653333 341.333333z" fill="#F4DBBA" /><path d="M515.413333 1024l-119.466666-197.973333h235.52z" fill="#EDF2F2" /><path d="M515.413333 822.613333l27.306667 37.546667-13.653333 23.893333 10.24 119.466667-23.893334 20.48-27.306666-20.48 10.24-119.466667-13.653334-23.893333z" fill="#EF6565" /><path d="M474.453333 133.12c-187.733333 17.066667-208.213333 160.426667-211.626666 191.146667-3.413333 27.306667 6.826667 136.533333 6.826666 136.533333s10.24 6.826667 10.24 10.24c3.413333 13.653333 3.413333 44.373333 3.413334 44.373333h10.24s-3.413333-116.053333 3.413333-139.946666c6.826667-23.893333 54.613333-47.786667 54.613333-47.786667s0 10.24-3.413333 20.48-13.653333 23.893333-13.653333 23.893333 23.893333 0 44.373333-6.826666c27.306667-6.826667 54.613333-20.48 54.613333-20.48s0 6.826667-3.413333 13.653333-10.24 13.653333-10.24 13.653333 88.746667-6.826667 153.6-27.306666c51.2-17.066667 85.333333-51.2 85.333333-51.2s44.373333 17.066667 58.026667 88.746666c13.653333 58.026667 6.826667 109.226667 6.826667 146.773334h10.24s0-34.133333 3.413333-44.373334c3.413333-20.48 23.893333-17.066667 23.893333-20.48 0-17.066667 17.066667-109.226667 0-177.493333-13.653333-54.613333-61.44-105.813333-88.746666-119.466667-30.72-13.653333-85.333333-44.373333-197.973334-34.133333zM744.106667 829.44c-51.2-27.306667-116.053333-23.893333-116.053334-23.893333L515.413333 1024c116.053333 0 218.453333-37.546667 303.786667-102.4-6.826667-23.893333-23.893333-68.266667-75.093333-92.16zM515.413333 1024l-122.88-218.453333s-64.853333-3.413333-116.053333 23.893333C238.933333 853.333333 211.626667 904.533333 204.8 921.6c85.333333 61.44 194.56 102.4 310.613333 102.4z" fill="#312B28" /><path d="M614.4 771.413333l-98.986667 51.2 51.2 64.853334 88.746667-78.506667zM413.013333 771.413333l102.4 51.2-54.613333 64.853334-88.746667-78.506667z" fill="#FFFFFF" /><path d="M515.413333 699.733333c-13.653333 0-34.133333 0-47.786666-13.653333-3.413333-3.413333-3.413333-6.826667 0-6.826667 3.413333-3.413333 6.826667-3.413333 6.826666 0 10.24 10.24 23.893333 13.653333 40.96 13.653334 20.48 0 34.133333-3.413333 40.96-13.653334 0 0 3.413333-3.413333 6.826667 0 3.413333 0 3.413333 3.413333 3.413333 3.413334v3.413333c-17.066667 10.24-37.546667 13.653333-51.2 13.653333z" fill="#E2C6A3" /></svg>