<svg version="1.1" id="圖層_1" xmlns="http://www.w3.org/2000/svg" xmlns:xlink="http://www.w3.org/1999/xlink" x="0px" y="0px" viewBox="5 20 93 55" style="transform-origin: 50px 50px 0px;" xml:space="preserve"><g style="transform-origin: 50px 50px 0px;"><g fill="#e6261f" style="fill: rgb(230, 38, 31); transform-origin: 50px 50px 0px; transform: scale(1);"><g style="transform-origin: 50px 50px 0px;"><g fill="#e6261f" style="fill: rgb(230, 38, 31);"><style type="text/css" class="ld ld-pulse" style="transform-origin: 50px 50px 0px; animation-duration: 1s; animation-delay: -1s; animation-direction: normal;">.st0{fill:#333333;} .st1{fill:#FFFFFF;stroke:#E15B64;stroke-width:9;stroke-miterlimit:10;} .st2{fill:#E0E0E0;} .st3{fill:#666666;} .st4{fill:#77A4BD;} .st5{fill:#FFFFFF;} .st6{fill:none;stroke:#E0E0E0;stroke-width:4.1492;stroke-linecap:round;stroke-linejoin:round;stroke-miterlimit:10;} .st7{fill:#E15B64;} .st8{fill:#FFFFFF;stroke:#E15B64;stroke-width:9.375;stroke-miterlimit:10;} .st9{fill:#FFFFFF;stroke:#333333;stroke-width:2.2676;stroke-miterlimit:10;} .st10{fill:#E0E0E0;stroke:#666666;stroke-width:4;stroke-miterlimit:10;} .st11{fill:#CCCCCC;} .st12{fill:none;stroke:#666666;stroke-width:3.8883;stroke-linecap:round;stroke-miterlimit:10;} .st13{fill:#E0E0E0;stroke:#E0E0E0;stroke-width:4.0031;stroke-linecap:round;stroke-miterlimit:10;} .st14{fill:none;stroke:#E0E0E0;stroke-width:4;stroke-linecap:round;stroke-miterlimit:10;} .st15{fill:#66503A;} .st16{fill:#849B87;} .st17{fill:none;stroke:#666666;stroke-width:2;stroke-linecap:round;stroke-miterlimit:10;} .st18{fill:#F47E60;} .st19{fill:#ABBD81;} .st20{fill:#F8B26A;} .st21{fill:none;stroke:#808080;stroke-width:2;stroke-linecap:round;stroke-miterlimit:10;} .st22{fill:#D50D01;} .st23{fill:#F5E6C8;} .st24{fill:#4D85AB;} .st25{fill:#F5E169;} .st26{fill:#FFFFFF;stroke:#000000;stroke-miterlimit:10;} .st27{fill:#E6E6E6;} .st28{stroke:#000000;stroke-miterlimit:10;} .st29{fill:#C33737;} .st30{fill:#FFFFFF;stroke:#E15B64;stroke-width:3;stroke-linecap:round;stroke-miterlimit:10;} .st31{fill:#808080;} .st32{fill:none;stroke:#E0E0E0;stroke-width:3;stroke-linecap:round;stroke-miterlimit:10;} .st33{fill:#666666;stroke:#FFFFFF;stroke-width:0.5834;stroke-linecap:round;stroke-miterlimit:10;} .st34{fill:none;stroke:#333333;stroke-width:4;stroke-linecap:round;stroke-miterlimit:10;} .st35{fill:#32517A;} .st36{fill:none;stroke:#E3CDB3;stroke-width:1.2;stroke-miterlimit:10;} .st37{fill:#E3CDB3;} .st38{fill:#849B87;stroke:#FFFFFF;stroke-width:1.5;stroke-miterlimit:10;} .st39{fill:none;stroke:#FFFFFF;stroke-width:4;stroke-miterlimit:10;} .st40{fill:#E15B64;stroke:#E0E0E0;stroke-width:3.3992;stroke-miterlimit:10;} .st41{fill:none;stroke:#E15B64;stroke-width:11.25;stroke-miterlimit:10;} .st42{fill:#FFFFFF;stroke:#E15B64;stroke-width:10;stroke-miterlimit:10;} .st43{fill:none;stroke:#E15B64;stroke-width:12;stroke-miterlimit:10;} .st44{fill:none;stroke:#333333;stroke-width:5;stroke-miterlimit:10;} .st45{fill:none;stroke:#333333;stroke-width:4.1855;stroke-miterlimit:10;} .st46{fill:#0071BC;stroke:#E15B64;stroke-width:9.375;stroke-miterlimit:10;} .st47{fill:#E15B64;stroke:#E15B64;stroke-width:9.375;stroke-miterlimit:10;} .st48{fill:none;stroke:#FFFFFF;stroke-width:10.6891;stroke-miterlimit:10;} .st49{fill:none;stroke:#E15B64;stroke-width:8;stroke-miterlimit:10;} .st50{fill:#FFFFFF;stroke:#333333;stroke-width:3.8549;stroke-miterlimit:10;} .st51{fill:none;stroke:#C33737;stroke-width:3.0839;stroke-linecap:round;stroke-linejoin:bevel;stroke-miterlimit:10;} .st52{fill:#A0C8D7;stroke:#77A4BD;stroke-width:2.5;stroke-miterlimit:10;} .st53{fill:#A0C8D7;} .st54{fill:none;stroke:#FFFFFF;stroke-width:3.6819;stroke-linecap:round;stroke-miterlimit:10;} .st55{opacity:0.5;fill:#666666;} .st56{fill:none;stroke:#333333;stroke-width:4.6651;stroke-miterlimit:10;} .st57{fill:#849B87;stroke:#FFFFFF;stroke-width:1.4326;stroke-miterlimit:10;} .st58{fill:none;stroke:#FFFFFF;stroke-width:2.5098;stroke-linecap:round;stroke-miterlimit:10;} .st59{fill:none;stroke:#FFFFFF;stroke-width:2.2296;stroke-linecap:round;stroke-miterlimit:10;} .st60{fill:none;stroke:#333333;stroke-width:1.7767;stroke-miterlimit:10;} .st61{fill:none;stroke:#FFFFFF;stroke-width:3.504;stroke-linecap:round;stroke-miterlimit:10;} .st62{fill:none;stroke:#FFFFFF;stroke-width:1.754;stroke-linecap:round;stroke-miterlimit:10;} .st63{fill:none;stroke:#333333;stroke-width:1.6297;stroke-miterlimit:10;} .st64{fill:none;stroke:#FFFFFF;stroke-width:1.6156;stroke-linecap:round;stroke-miterlimit:10;} .st65{fill:none;stroke:#333333;stroke-width:1.5011;stroke-miterlimit:10;} .st66{fill:#C2C2C2;} .st67{fill:none;stroke:#E0E0E0;stroke-width:4.0031;stroke-linecap:round;stroke-miterlimit:10;} .st68{fill:none;stroke:#666666;stroke-width:2.72;stroke-linecap:round;stroke-miterlimit:10;} .st69{fill:#F8B26A;stroke:#333333;stroke-width:3.0598;stroke-miterlimit:10;} .st70{fill:none;stroke:#FFFFFF;stroke-width:1.4118;stroke-linecap:round;stroke-miterlimit:10;} .st71{fill:none;stroke:#333333;stroke-width:4.3583;stroke-miterlimit:10;} .st72{fill:#77A4BD;stroke:#E0E0E0;stroke-width:3.2;stroke-miterlimit:10;} .st73{opacity:0.1;} .st74{fill:#E15B64;stroke:#E0E0E0;stroke-width:1.9832;stroke-miterlimit:10;} .st75{fill:none;stroke:#FFFFFF;stroke-width:2.3679;stroke-linecap:round;stroke-miterlimit:10;} .st76{fill:none;stroke:#A0C8D7;stroke-width:2.8855;stroke-linecap:round;stroke-miterlimit:10;} .st77{fill:none;stroke:#F8B26A;stroke-width:2.6943;stroke-linecap:round;stroke-miterlimit:10;} .st78{opacity:0.5;fill:#FFFFFF;} .st79{opacity:0.5;}</style><g class="ld ld-pulse" style="transform-origin: 50px 50px 0px; animation-duration: 1s; animation-delay: -0.967742s; animation-direction: normal;"><path class="st3" d="M82.8,27.6h-2.3c-0.9,0-1.6,0.7-1.6,1.6v0.5h-3.2v1.9h3.2v4c0,0.9,0.7,1.6,1.6,1.6h2.3c0.9,0,1.6-0.7,1.6-1.6 v-6.4C84.3,28.3,83.6,27.6,82.8,27.6z" fill="#eb7532" style="fill: rgb(235, 117, 50);"></path></g><g class="ld ld-pulse" style="transform-origin: 50px 50px 0px; animation-duration: 1s; animation-delay: -0.935484s; animation-direction: normal;"><path class="st25" d="M75.5,27c-0.2-1.2-1.2-2.1-2.4-2.1l-8.7,0l0,0H12.5c-2,0-3.7,1.6-3.7,3.7v36h52.3l0,1.5c0,1.5,1.2,2.7,2.6,2.7 h24.3c1.5,0,2.6-1.2,2.6-2.7V49.7c0-1.2-0.7-2.2-1.8-2.5l-8-1.7c-0.8-0.3-1.4-0.9-1.5-1.8C78.8,39.5,76.1,30.7,75.5,27z" fill="#f7d038" style="fill: rgb(247, 208, 56);"></path></g><g class="ld ld-pulse" style="transform-origin: 50px 50px 0px; animation-duration: 1s; animation-delay: -0.903226s; animation-direction: normal;"><path class="st7" d="M12.6,59.1H8.8c-0.2,0-0.3,0.2-0.3,0.4l0,3.2c0,0.2,0.2,0.4,0.4,0.4h3.8c0.9,0,1.6-0.7,1.6-1.7v-0.4 C14.3,59.9,13.5,59.1,12.6,59.1z" fill="#a3e048" style="fill: rgb(163, 224, 72);"></path></g><g class="ld ld-pulse" style="transform-origin: 50px 50px 0px; animation-duration: 1s; animation-delay: -0.870968s; animation-direction: normal;"><path class="st3" d="M90.3,64.6H7.9c0,0-0.4,0-0.4,0.4c0,2.3,1.7,3.8,4.2,3.8h78.5c1.2,0,2.2-0.9,2.2-2.1v0 C92.5,65.5,91.5,64.6,90.3,64.6z" fill="#eb7532" style="fill: rgb(235, 117, 50);"></path></g><g style="transform-origin: 50px 50px 0px;"><g fill="#e6261f" style="fill: rgb(230, 38, 31);"><g class="ld ld-pulse" style="transform-origin: 50px 50px 0px; animation-duration: 1s; animation-delay: -0.83871s; animation-direction: normal;"><circle class="st5" cx="25.4" cy="66.8" r="6.9" fill="#49da9a" style="fill: rgb(73, 218, 154);"></circle></g><g class="ld ld-pulse" style="transform-origin: 50px 50px 0px; animation-duration: 1s; animation-delay: -0.806452s; animation-direction: normal;"><path class="st0" d="M25.4,61.3c3,0,5.5,2.5,5.5,5.5s-2.5,5.5-5.5,5.5c-3,0-5.5-2.5-5.5-5.5S22.4,61.3,25.4,61.3 M25.4,58.5 c-4.6,0-8.3,3.7-8.3,8.3c0,4.6,3.7,8.3,8.3,8.3c4.6,0,8.3-3.7,8.3-8.3C33.7,62.2,30,58.5,25.4,58.5L25.4,58.5z" fill="#34bbe6" style="fill: rgb(52, 187, 230);"></path></g></g></g><g style="transform-origin: 50px 50px 0px;"><g fill="#e6261f" style="fill: rgb(230, 38, 31);"><g class="ld ld-pulse" style="transform-origin: 50px 50px 0px; animation-duration: 1s; animation-delay: -0.774194s; animation-direction: normal;"><circle class="st27" cx="25.4" cy="66.8" r="3.7" fill="#4355db" style="fill: rgb(67, 85, 219);"></circle></g></g></g><g style="transform-origin: 50px 50px 0px;"><g fill="#e6261f" style="fill: rgb(230, 38, 31);"><g class="ld ld-pulse" style="transform-origin: 50px 50px 0px; animation-duration: 1s; animation-delay: -0.741935s; animation-direction: normal;"><circle class="st5" cx="75.1" cy="66.8" r="6.9" fill="#49da9a" style="fill: rgb(73, 218, 154);"></circle></g><g class="ld ld-pulse" style="transform-origin: 50px 50px 0px; animation-duration: 1s; animation-delay: -0.709677s; animation-direction: normal;"><path class="st0" d="M75.1,61.3c3,0,5.5,2.5,5.5,5.5s-2.5,5.5-5.5,5.5s-5.5-2.5-5.5-5.5S72.1,61.3,75.1,61.3 M75.1,58.5 c-4.6,0-8.3,3.7-8.3,8.3c0,4.6,3.7,8.3,8.3,8.3s8.3-3.7,8.3-8.3C83.4,62.2,79.7,58.5,75.1,58.5L75.1,58.5z" fill="#34bbe6" style="fill: rgb(52, 187, 230);"></path></g></g></g><g style="transform-origin: 50px 50px 0px;"><g fill="#e6261f" style="fill: rgb(230, 38, 31);"><g class="ld ld-pulse" style="transform-origin: 50px 50px 0px; animation-duration: 1s; animation-delay: -0.677419s; animation-direction: normal;"><circle class="st27" cx="75.1" cy="66.8" r="3.7" fill="#4355db" style="fill: rgb(67, 85, 219);"></circle></g></g></g><g class="ld ld-pulse" style="transform-origin: 50px 50px 0px; animation-duration: 1s; animation-delay: -0.645161s; animation-direction: normal;"><path class="st2" d="M86.4,60h4.1c0.6,0,1.1-0.5,1.1-1.1v-1.8c0-0.6-0.5-1.1-1.1-1.1h-4c-0.3,0-0.5,0.2-0.5,0.5v3 C85.9,59.8,86.1,60,86.4,60z" fill="#d23be7" style="fill: rgb(210, 59, 231);"></path></g><g class="ld ld-pulse" style="transform-origin: 50px 50px 0px; animation-duration: 1s; animation-delay: -0.612903s; animation-direction: normal;"><path class="st0" d="M73.2,29.2c-0.4-1-1-1.6-1.8-1.6H66c-1.1,0-2,1.4-2,3.1l0,11.3c0,1.2,0.9,2.1,2.1,2.1h7.5 c1.3,0,2.3-1.1,2.1-2.4C74.9,36.4,73.2,29.2,73.2,29.2z" fill="#34bbe6" style="fill: rgb(52, 187, 230);"></path></g><g class="ld ld-pulse" style="transform-origin: 50px 50px 0px; animation-duration: 1s; animation-delay: -0.580645s; animation-direction: normal;"><path class="st18" d="M53,63.1h6c1.1,0,2.1-0.9,2.1-2.1V29.6c0-1.1-0.9-2.1-2.1-2.1h-6c-1.1,0-2.1,0.9-2.1,2.1V61 C51,62.1,51.9,63.1,53,63.1z" fill="#e6261f" style="fill: rgb(230, 38, 31);"></path></g><g class="ld ld-pulse" style="transform-origin: 50px 50px 0px; animation-duration: 1s; animation-delay: -0.548387s; animation-direction: normal;"><path class="st0" d="M39.5,44.1h6.9c0.9,0,1.6-0.7,1.6-1.6V29.2c0-0.9-0.7-1.6-1.6-1.6h-6.9c-0.9,0-1.6,0.7-1.6,1.6v13.3 C37.9,43.4,38.6,44.1,39.5,44.1z" fill="#34bbe6" style="fill: rgb(52, 187, 230);"></path></g><g class="ld ld-pulse" style="transform-origin: 50px 50px 0px; animation-duration: 1s; animation-delay: -0.516129s; animation-direction: normal;"><path class="st0" d="M26.4,44.1h6.9c0.9,0,1.6-0.7,1.6-1.6V29.2c0-0.9-0.7-1.6-1.6-1.6h-6.9c-0.9,0-1.6,0.7-1.6,1.6v13.3 C24.8,43.4,25.5,44.1,26.4,44.1z" fill="#34bbe6" style="fill: rgb(52, 187, 230);"></path></g><g class="ld ld-pulse" style="transform-origin: 50px 50px 0px; animation-duration: 1s; animation-delay: -0.483871s; animation-direction: normal;"><path class="st0" d="M13.3,44.1h6.9c0.9,0,1.6-0.7,1.6-1.6V29.2c0-0.9-0.7-1.6-1.6-1.6h-6.9c-0.9,0-1.6,0.7-1.6,1.6v13.3 C11.7,43.4,12.5,44.1,13.3,44.1z" fill="#34bbe6" style="fill: rgb(52, 187, 230);"></path></g><g class="ld ld-pulse" style="transform-origin: 50px 50px 0px; animation-duration: 1s; animation-delay: -0.451613s; animation-direction: normal;"><line class="st77" x1="12.8" y1="48.9" x2="47.1" y2="48.9" stroke="#eb7532" style="stroke: rgb(235, 117, 50);"></line></g><metadata xmlns:d="https://loading.io/stock/" class="ld ld-pulse" style="transform-origin: 50px 50px 0px; animation-duration: 1s; animation-delay: -0.419355s; animation-direction: normal;">
<d:name class="ld ld-pulse" style="transform-origin: 50px 50px 0px; animation-duration: 1s; animation-delay: -0.387097s; animation-direction: normal;">truck</d:name>
<d:tags class="ld ld-pulse" style="transform-origin: 50px 50px 0px; animation-duration: 1s; animation-delay: -0.354839s; animation-direction: normal;">school bus,tour,wagon,suv,cargo,ship,goods,truck,transportation</d:tags>
<d:license class="ld ld-pulse" style="transform-origin: 50px 50px 0px; animation-duration: 1s; animation-delay: -0.322581s; animation-direction: normal;">cc-by</d:license>
<d:slug class="ld ld-pulse" style="transform-origin: 50px 50px 0px; animation-duration: 1s; animation-delay: -0.290323s; animation-direction: normal;">e64uqd</d:slug>
</metadata></g></g></g></g><style type="text/css" class="ld ld-pulse" style="transform-origin: 50px 50px 0px; animation-duration: 1s; animation-delay: -0.258065s; animation-direction: normal;">path,ellipse,circle,rect,polygon,polyline,line { stroke-width: 0; }@keyframes ld-pulse {
  0% {
    -webkit-transform: scale(1.1);
    transform: scale(1.1);
  }
  50% {
    -webkit-transform: scale(0.9);
    transform: scale(0.9);
  }
  51% {
    -webkit-transform: scale(1.1);
    transform: scale(1.1);
  }
  100% {
    -webkit-transform: scale(0.9);
    transform: scale(0.9);
  }
}
@-webkit-keyframes ld-pulse {
  0% {
    -webkit-transform: scale(1.1);
    transform: scale(1.1);
  }
  50% {
    -webkit-transform: scale(0.9);
    transform: scale(0.9);
  }
  51% {
    -webkit-transform: scale(1.1);
    transform: scale(1.1);
  }
  100% {
    -webkit-transform: scale(0.9);
    transform: scale(0.9);
  }
}
.ld.ld-pulse {
  -webkit-animation: ld-pulse 0.8s infinite cubic-bezier(0.215, 0.61, 0.355, 1);
  animation: ld-pulse 0.8s infinite cubic-bezier(0.215, 0.61, 0.355, 1);
}
</style></svg>