<?xml version="1.0" standalone="no"?><!DOCTYPE svg PUBLIC "-//W3C//DTD SVG 1.1//EN" "http://www.w3.org/Graphics/SVG/1.1/DTD/svg11.dtd"><svg class="icon" height="512" viewBox="0 0 1024 1024" version="1.1" xmlns="http://www.w3.org/2000/svg"><path style="fill:#fff;" d="M512 960C264.6 960 64 759.4 64 512S264.6 64 512 64s448 200.6 448 448-200.6 448-448 448z m268.8-627.2c0-33-26.7-59.7-59.7-59.7v59.7h-59.7v-59.7h-59.7v59.7H542v-59.7h-59.7v59.7h-59.7v-59.7h-59.7v59.7h-59.7v-59.7c-33 0-59.7 26.7-59.7 59.7v358.4c0 33 26.7 59.7 59.7 59.7h418.1c33 0 59.7-26.7 59.7-59.7V332.8z m-477.9 59.7H721v298.7H302.9V392.5z m298.7 239h59.7v-59.7h-59.7v59.7z m0-119.5h59.7v-59.7h-59.7V512zM482.1 631.5h59.7v-59.7h-59.7v59.7z m0-119.5h59.7v-59.7h-59.7V512zM362.7 631.5h59.7v-59.7h-59.7v59.7z" /></svg>