<?xml version="1.0" standalone="no"?><!DOCTYPE svg PUBLIC "-//W3C//DTD SVG 1.1//EN" "http://www.w3.org/Graphics/SVG/1.1/DTD/svg11.dtd"><svg class="icon" height="512" viewBox="0 0 1024 1024" version="1.1" xmlns="http://www.w3.org/2000/svg"><path style="fill:#fff;" d="M512 63.68c-247.2 0-448.32 200.64-448.32 448.32s200.64 447.84 448.32 447.84 447.84-200.64 447.84-447.84-200.16-448.32-447.84-448.32zM512 950.24c-113.28 0-216.48-43.2-294.24-113.76l0.48-0.96s74.88-29.76 114.72-39.84 54.72-29.76 64.8-39.84 10.080-35.040 10.080-59.52c0-24.96-24.96-39.84-24.96-59.52s4.8-54.72-10.080-59.52-19.68-14.88-24.96-29.76c-4.8-14.88-14.88-29.76-14.88-54.72s14.88-24.96 14.88-24.96-10.080-54.72-10.080-109.44 44.64-79.68 44.64-79.68 54.72-55.68 124.8-55.68c89.76 0 164.16 49.92 164.16 144.48 0 54.72-14.88 99.36-14.88 99.36s14.88 4.8 14.88 24.96c0 19.68-4.8 39.84-14.88 59.52s-19.68 19.68-29.76 29.76c-6.24 6.24-4.8 46.56-4.8 59.52 0 19.68-24.96 39.84-24.96 54.72 0 14.88-4.8 49.92 10.080 64.8 14.88 14.88 44.64 35.040 109.44 49.92 41.76 9.6 69.12 23.52 83.040 32.16-77.28 67.2-177.6 108-287.52 108z" /></svg>