<?xml version="1.0" standalone="no"?><!DOCTYPE svg PUBLIC "-//W3C//DTD SVG 1.1//EN" "http://www.w3.org/Graphics/SVG/1.1/DTD/svg11.dtd"><svg class="icon" height="512" viewBox="0 0 1024 1024" version="1.1" xmlns="http://www.w3.org/2000/svg"><path d="M512 0c283.306667 0 512 228.693333 512 512s-228.693333 512-512 512S0 795.306667 0 512 228.693333 0 512 0z" fill="#d4237a" /><path d="M785.066667 372.053333l10.24 566.613334-238.933334-71.68-13.653333-98.986667L785.066667 372.053333z m-515.413334 0l-20.48 522.24 249.173334-23.893333-10.24-98.986667-218.453334-399.36z" fill="#312B28" /><path d="M512 1024c116.053333 0 225.28-40.96 314.026667-105.813333-10.24-17.066667-34.133333-37.546667-68.266667-54.613334-54.613333-27.306667-116.053333-27.306667-116.053333-27.306666l-133.12 40.96-102.4-40.96s-68.266667 3.413333-119.466667 34.133333c-34.133333 20.48-61.44 44.373333-71.68 58.026667C296.96 986.453333 402.773333 1024 512 1024z" fill="#F7F9FB" /><path d="M464.213333 747.52h112.64v75.093333l126.293334 20.48s-78.506667 51.2-184.32 51.2c-92.16 0-163.84-54.613333-163.84-54.613333l109.226666-20.48v-71.68z" fill="#EFD0AF" /><path d="M296.96 314.026667l-3.413333 112.64s6.826667 88.746667 17.066666 150.186666c6.826667 40.96 23.893333 75.093333 54.613334 112.64 40.96 54.613333 119.466667 95.573333 157.013333 95.573334 40.96 0 105.813333-34.133333 146.773333-85.333334 23.893333-30.72 61.44-81.92 68.266667-119.466666 13.653333-78.506667 20.48-211.626667 20.48-211.626667l-75.093333-102.4L296.96 314.026667z" fill="#F4DBBA" /><path d="M508.586667 143.36c-201.386667 0-242.346667 170.666667-242.346667 221.866667 0 81.92-6.826667 197.973333-6.826667 197.973333s20.48-78.506667 20.48-75.093333c3.413333 13.653333 3.413333 47.786667 3.413334 47.786666 3.413333 0 34.133333 17.066667 34.133333 17.066667l-3.413333-126.293333s58.026667 3.413333 109.226666-20.48c40.96-20.48 47.786667-98.986667 47.786667-98.986667s23.893333 88.746667 85.333333 102.4c58.026667 13.653333 157.013333-13.653333 163.84 27.306667 13.653333 58.026667 6.826667 85.333333 3.413334 122.88l23.893333-13.653334s3.413333-34.133333 6.826667-47.786666c3.413333-20.48 13.653333 54.613333 13.653333 51.2 0-17.066667 17.066667-95.573333 17.066667-180.906667 0-105.813333-98.986667-225.28-276.48-225.28z" fill="#312B28" /><path d="M307.2 491.52s-10.24-23.893333-30.72-10.24c-10.24 6.826667-13.653333 40.96-6.826667 58.026667 6.826667 23.893333 17.066667 30.72 23.893334 37.546666 6.826667 3.413333 20.48 3.413333 20.48 3.413334L307.2 491.52z m436.906667-17.066667s10.24-3.413333 20.48 3.413334 13.653333 40.96 6.826666 58.026666c-6.826667 23.893333-17.066667 30.72-23.893333 37.546667-6.826667 6.826667-20.48 6.826667-20.48 6.826667l17.066667-105.813334z" fill="#F4DBBA" /><path d="M518.826667 692.906667c-17.066667 0-34.133333-6.826667-47.786667-20.48 0 0 0-3.413333-3.413333-3.413334s0-3.413333 0-3.413333c3.413333-3.413333 6.826667-3.413333 6.826666 0 23.893333 20.48 61.44 20.48 85.333334 0h3.413333s3.413333 0 3.413333 3.413333c3.413333 3.413333 3.413333 6.826667 0 6.826667-10.24 10.24-27.306667 17.066667-47.786666 17.066667z" fill="#E2C6A3" /></svg>