<?xml version="1.0" standalone="no"?><!DOCTYPE svg PUBLIC "-//W3C//DTD SVG 1.1//EN" "http://www.w3.org/Graphics/SVG/1.1/DTD/svg11.dtd"><svg class="icon" height="512" viewBox="0 0 1024 1024" version="1.1" xmlns="http://www.w3.org/2000/svg"><path d="M424.02304 636.30336c53.4784 49.30048 136.91392 40.23296 191.25248-3.84a3.6864 3.6864 0 0 1 1.95072-2.41152c1.51552-0.7936 3.11296-1.4336 4.77696-1.95072-14.12608-22.7072-23.8592-45.52704-27.8016-71.14752-49.79712 24.40704-105.97888 20.992-153.49248-4.52096 1.13664 28.8-7.82336 52.74112-20.82816 78.26432 1.33632 1.82784 2.67264 3.6608 4.03968 5.46816l0.1024 0.13824z" fill="#F4E3D6" /><path d="M594.2016 556.9536a173.40928 173.40928 0 0 0 35.61472-23.29088c42.83392-36.14208 68.10112-87.48544 82.35008-140.8512 1.15712-4.34176 2.30912-8.79104 3.44576-13.28128 1.26464 0.47104 2.71872 0.70144 4.36224 0.60928 33.89952-1.88928 45.29664-56.94976 29.1072-82.90304-0.24064 0.0256-0.4864 0.05632-0.72704-0.05632-9.59488-4.4288-15.76448-14.1568-26.32704 2.66752-2.28864 3.64032-2.47808 11.4944-3.23072 15.73888a317.07136 317.07136 0 0 0-4.72064 47.32928c-0.04608 1.81248-1.57696 2.67776-3.21536 2.44736-6.41536-0.90112-13.88544-1.44384-19.56352-4.85376-0.21504-0.128-0.34816-0.35328-0.52736-0.53248a11.27936 11.27936 0 0 1-5.02272-8.03328c-0.80384-6.88128 3.24608-14.30528 5.43744-20.64384 2.98496-8.63232 5.45792-17.13664 5.29408-25.99936l-5.24288 4.94592c-2.22208 2.0992-5.67296 0-5.01248-2.9184 3.70688-16.41472 4.64384-32.40448 3.51232-49.08032a150.44096 150.44096 0 0 1-31.03744-3.2768l11.01312 3.95264c2.72896-0.13824 3.31776 4.22912 0.64512 4.76672-75.53024 15.25248-157.73184-10.42432-214.59968-62.03904 0.4352 2.83648 0.92672 5.68832 1.55648 8.53504 2.5088 4.9152 5.38624 9.58464 9.5232 13.83936 1.83808 1.8944-0.09216 4.40832-2.37056 4.07552-31.42656-4.61824-61.72672-20.44416-80.56832-46.08a187.22304 187.22304 0 0 1-3.2256-3.73248c1.38752 15.03232-0.95232 29.88032-6.29248 44.25728-0.79872 2.15552-3.82976 2.3296-4.56704 0a59.21792 59.21792 0 0 0-9.18528-17.85856c2.19136 9.56416 3.74272 19.23584 4.77184 28.94336 0.77312 0.73728 1.28 1.80736 1.23392 3.24608-0.08192 2.42176-0.22016 4.8384-0.31232 7.26016a233.08288 233.08288 0 0 1-4.33152 62.0288c-0.43008 2.06336-3.1232 1.62304-3.75296 0-10.2144-26.37824-3.65568 11.57632-3.40992 18.52416 0.20992 5.78048 2.7136 19.87072-2.23232 24.91392-4.85888 4.95616-13.09184 2.8416-19.46624 1.72544-1.13664 1.536-4.16768 1.1008-4.2496-1.35168-0.384-11.36128-1.28-22.58944-3.18976-33.80736-0.6656-3.9168-0.768-9.55904-2.66752-13.07648-7.9104-14.63296-19.072-5.41184-27.20256-0.52736-1.00352 0.60416-2.06848 0.08192-2.59584-0.7424-7.8848 10.91584-8.18688 26.1888-6.66624 38.9888 1.67424 14.07488 6.99904 28.98432 19.84512 36.5568 7.0144 4.13184 15.17568 5.43232 22.52288 3.51744 0.3328 2.12992 0.64512 4.2752 0.9984 6.39488 0.22016 1.3312 0.73216 2.432 1.42336 3.33824 7.28576 37.7088 21.34016 73.52832 44.61568 105.1904 17.8432 24.27392 40.1408 43.37152 64.75264 56.58624 47.50848 25.5488 103.69024 28.95872 153.48736 4.5568z" fill="#F3D1BB" /><path d="M295.81312 302.58688c8.13056-4.87936 19.28704-14.1056 27.20256 0.52736 1.89952 3.51744 2.00192 9.15968 2.66752 13.07648 1.90976 11.21792 2.80576 22.44608 3.18976 33.80736 0.08192 2.44736 3.11296 2.88768 4.2496 1.35168 6.3744 1.11104 14.60736 3.23072 19.46624-1.72544 4.94592-5.0432 2.44224-19.13344 2.23232-24.91392-0.25088-6.94784-6.8096-44.9024 3.40992-18.52416 0.62976 1.62304 3.32288 2.06336 3.75296 0a233.30816 233.30816 0 0 0 4.33152-62.0288c0.09216-2.42176 0.2304-4.8384 0.31232-7.26016a4.12672 4.12672 0 0 0-1.23392-3.24608 247.66464 247.66464 0 0 0-4.77184-28.94336 59.27936 59.27936 0 0 1 9.18528 17.85856c0.73216 2.3296 3.7632 2.15552 4.56704 0 5.34016-14.37696 7.68-29.22496 6.29248-44.25728 1.05472 1.26464 2.14016 2.49344 3.2256 3.73248 18.8416 25.63072 49.14176 41.46176 80.56832 46.08 2.2784 0.3328 4.21376-2.18112 2.37056-4.07552-4.13696-4.25984-7.0144-8.92416-9.5232-13.83936a132.38784 132.38784 0 0 1-1.55648-8.53504c56.86784 51.6096 139.06944 77.2864 214.59968 62.03904 2.67264-0.5376 2.08384-4.90496-0.64512-4.76672l-11.01312-3.95264c10.20416 2.19648 20.6336 3.23584 31.03744 3.2768 1.13152 16.68096 0.19456 32.67072-3.51232 49.08032-0.66048 2.9184 2.7904 5.0176 5.01248 2.9184l5.24288-4.94592c0.16384 8.86272-2.30912 17.36192-5.29408 25.99936-2.19136 6.33856-6.24128 13.76256-5.43744 20.64384 0.39936 3.4048 2.432 6.35904 5.02272 8.03328 0.1792 0.1792 0.31232 0.40448 0.52736 0.53248 5.67808 3.40992 13.15328 3.95264 19.56352 4.85376 1.6384 0.2304 3.16928-0.63488 3.21536-2.44736 0.41984-15.88736 1.93024-31.67232 4.72064-47.32928 0.75776-4.24448 0.9472-12.09856 3.23072-15.73888 10.56256-16.82432 16.73216-7.09632 26.32704-2.66752 0.24064 0.11264 0.4864 0.08192 0.72704 0.05632 1.05472-0.10752 1.92-1.28512 0.91136-2.18112l-0.2816-0.23552c0.14848-0.25088 0.34816-0.46592 0.3584-0.7936 0.39936-14.38208-0.64512-32.01024-5.504-45.69088 38.41536-14.85824 69.04832-45.97248 75.48416-91.0848 0.09728-0.11776 0.18944-0.20992 0.2816-0.3328 2.16064-2.69312-1.56672-6.56384-3.85536-3.85536l-0.46592 0.54272a1.9968 1.9968 0 0 0-0.75264 0.87552c-31.98976 37.39136-11.61216-2.432-9.79968-13.15328 2.90816-17.20832-0.64512-34.8416-4.17792-51.64032-0.56832-2.70336-4.15232-1.72032-4.43392 0.59904-5.56544 45.78304-53.80096 49.45408-85.7344 29.17376-12.45184-7.9104-26.76224-19.01056-38.54848-29.06112 8.23296-2.33984 11.93984-5.80096 17.0496-13.72672 1.43872-2.23232-0.92672-4.5568-3.17952-4.13696-36.87424 6.82496-62.9504-14.58176-97.34144-22.57408-22.13376-5.1456-44.30848-5.79584-66.64704-2.59584 4.62848-7.70048 4.92544-13.05088 2.8928-22.98368-0.50688-2.4832-4.13696-2.7904-5.31456-0.69632-12.032 21.35552-48.82432 11.48416-68.09088 12.19072-15.96416 0.58368-31.86688 2.7136-46.90432 8.28416-12.96896 4.80256-36.34688 15.9232-42.25536 31.03232-3.88096-11.03872-7.95648-21.51936-9.93792-33.29024-0.43008-2.53952-3.81952-2.40128-5.02272-0.65536-11.18208 16.19456-16.896 36.87936-11.45344 56.22272-20.82816 10.31168-35.67104 24.58112-46.94016 45.0048-1.39776 2.52928 1.37728 5.21216 3.88608 3.88096 2.7648-1.46432 24.71936-12.99456 27.52-5.41696 0.64512 1.75104-8.95488 15.1552-10.11712 17.46944-5.38624 10.76736-9.49248 22.17472-12.78976 33.73056-7.15776 25.09824-9.79968 50.87232-11.70432 76.80512-0.20992 2.84672 3.9936 3.82976 5.30432 1.4336a43.35616 43.35616 0 0 1 8.46336-12.02688c-5.06368 12.8256-8.2176 27.00288-5.89824 40.68352-0.19968 0.16896-0.41472 0.33792-0.60928 0.512-0.76288 0.67072-0.70656 1.5872-0.256 2.28864 0.53248 0.81408 1.59744 1.3312 2.60096 0.73216z" fill="#683C11" /><path d="M520.25344 1001.7024c143.19616 0 274.52928-50.79552 376.96512-135.34208-7.54176-58.1376-15.39584-118.7584-34.78528-174.19776-1.39776-4.00384-4.93568-5.13024-7.89504-4.23424a8.2176 8.2176 0 0 0-1.23904-0.49152c-46.31552-13.17888-93.15328-24.3968-139.4688-37.52448-23.6544-6.70208-66.10432-29.84448-91.81696-21.81632a28.4928 28.4928 0 0 0-4.77696 1.95072 3.6864 3.6864 0 0 0-1.95072 2.41152c-54.33856 44.07296-137.77408 53.14048-191.25248 3.84l-0.10752-0.14336a385.9456 385.9456 0 0 1-4.03968-5.46816c-0.60416-0.82944-1.24928-1.62816-1.82784-2.47296-1.92-2.79552-4.82816-2.97984-6.912-1.7152-3.65568-0.72704-7.9104 0.03584-11.3664 0.75776-2.944 0.6144-5.70368 1.8944-8.36608 3.37408-26.12224 2.33472-54.38464 17.48992-76.99968 25.10336-40.27392 13.55776-80.8448 24.05376-122.14272 33.90976-2.15552 0.51712-3.43552 1.75104-4.0704 3.23584-0.75776 0.2816-1.48992 0.7168-2.1504 1.408a24.0128 24.0128 0 0 0-4.50048 6.89664c-12.45696 14.55104-18.304 33.93024-24.46848 52.0192a1684.1728 1684.1728 0 0 0-27.904 90.03008c-0.82944 2.9696-1.58208 5.95456-2.38592 8.92928 104.64256 93.01504 242.43712 149.53984 393.46176 149.53984z" fill="#E5332A" /></svg>