<?xml version="1.0" standalone="no"?><!DOCTYPE svg PUBLIC "-//W3C//DTD SVG 1.1//EN" "http://www.w3.org/Graphics/SVG/1.1/DTD/svg11.dtd"><svg class="icon" height="512" viewBox="0 0 1026 1024" version="1.1" xmlns="http://www.w3.org/2000/svg"><path d="M514.56 512m-512 0a512 512 0 1 0 1024 0 512 512 0 1 0-1024 0Z" fill="#FFC776" /><path d="M296.96 48.128L50.688 294.4c-16.384 34.304-28.672 71.168-36.864 109.056L406.528 11.264C368.128 19.456 331.776 32.256 296.96 48.128zM514.56 0c-8.192 0-16.384 0-24.576 0.512L3.072 487.424C2.56 495.616 2.56 503.808 2.56 512c0 15.872 0.512 31.232 2.048 46.592L561.152 2.048c-15.36-1.536-30.72-2.048-46.592-2.048zM616.96 10.24L12.8 614.4c4.096 19.456 9.216 38.4 15.36 57.344L674.304 25.6c-18.944-6.144-37.888-11.264-57.344-15.36zM726.528 46.08L48.64 723.968c7.68 16.384 15.872 32.256 24.576 47.616L774.144 70.656c-15.36-9.216-31.232-17.408-47.616-24.576zM814.592 96.768L99.328 812.032c10.24 13.824 20.992 27.136 32.256 39.936L854.528 129.024c-12.8-11.264-26.112-22.016-39.936-32.256zM891.392 165.376L167.936 888.832c12.8 11.776 25.6 22.528 39.424 32.768l716.8-716.8c-10.24-13.824-21.504-27.136-32.768-39.424zM951.296 244.224L246.784 948.736c15.36 9.216 30.72 17.92 47.104 25.6L976.384 291.328c-7.68-16.384-15.872-31.744-25.088-47.104zM997.888 342.528L345.088 995.328c18.432 6.656 36.864 11.776 56.32 16.384L1013.76 398.336c-4.096-18.944-9.728-37.888-15.872-55.808zM1026.56 512c0-20.48-1.024-40.96-3.584-60.928L453.632 1020.416c19.968 2.56 40.448 3.584 60.928 3.584h7.68l503.808-503.808c0.512-3.072 0.512-5.632 0.512-8.192zM1018.88 599.552l-417.28 417.28c34.816-6.144 68.608-15.36 100.352-28.16l288.256-288.256c13.312-32.256 23.04-66.048 28.672-100.864z" fill="#FFF2BB" /><path d="M514.56 512m-452.096 0a452.096 452.096 0 1 0 904.192 0 452.096 452.096 0 1 0-904.192 0Z" fill="#F4730B" /><path d="M655.36 590.336c-4.096-8.704-8.704-21.504-12.8-29.696-21.504 8.704-38.4 12.8-59.392 16.896l-55.296 12.8h-33.792l-34.304-8.704c-25.6-4.096-51.2-12.8-76.8-21.504v4.096c-4.096 8.704-8.704 16.896-12.8 25.6-8.704 29.696-8.704 59.392 0 84.992v4.096c8.704 25.6 29.696 42.496 51.2 42.496H604.16c25.6 0 47.104-16.896 51.2-38.4V675.84c8.192-30.208 8.192-59.904 0-85.504z" fill="#FEC878" /><path d="M697.856 564.736v157.696c0 12.8 12.8 25.6 25.6 25.6s25.6-12.8 25.6-25.6v-208.896c-16.896 8.704-34.304 16.896-51.2 25.6v25.6zM804.352 411.648l-8.704-8.704c-64-51.2-136.192-89.6-212.992-110.592L527.36 279.552c-8.704-4.096-16.896-4.096-25.6 0l-25.6 4.096c-80.896 21.504-153.088 55.296-217.088 102.4l-34.304 25.6c-12.8 12.8-12.8 34.304 0 42.496l12.8 8.704c72.192 47.104 148.992 76.8 229.888 93.696l34.304 8.704h21.504l55.296-12.8c80.896-16.896 153.088-51.2 221.696-97.792 16.896-13.312 16.896-34.816 4.096-43.008z" fill="#FFFFFF" /></svg>