<?xml version="1.0" standalone="no"?><!DOCTYPE svg PUBLIC "-//W3C//DTD SVG 1.1//EN" "http://www.w3.org/Graphics/SVG/1.1/DTD/svg11.dtd"><svg class="icon" height="512" viewBox="0 0 1298 1024" version="1.1" xmlns="http://www.w3.org/2000/svg"><path d="M1030.92544 369.496728a158.400297 158.400297 0 0 0-119.00472-110.11235 157.186501 157.186501 0 0 0-58.763529-150.431466 160.484858 160.484858 0 0 0-172.913067-14.77664 158.980808 158.980808 0 0 0-145.655446-93.858047 158.901647 158.901647 0 0 0-140.061432 82.406152 159.534932 159.534932 0 0 0-162.226391 14.064194A156.157414 156.157414 0 0 0 167.679445 244.950768a158.083655 158.083655 0 0 0-123.411326 105.336329 155.814385 155.814385 0 0 0 34.725103 157.397597A156.658764 156.658764 0 0 0 162.138205 772.318473a157.608691 157.608691 0 0 0 61.69247 149.296831 159.640479 159.640479 0 0 0 161.883361 16.966749 159.746027 159.746027 0 0 0 279.779835 5.514853 160.669566 160.669566 0 0 0 162.543033-10.713064 156.051867 156.051867 0 0 0 67.629512-146.631759 158.7961 158.7961 0 0 0 125.706983-103.172607c20.317879-56.494259 5.884269-116.682677-31.796162-158.136428a154.811684 154.811684 0 0 0 41.348203-155.94632z" fill="#F4D438" /><path d="M944.614034 394.353147a130.878806 130.878806 0 0 0-98.291038-90.929106A129.796945 129.796945 0 0 0 797.850341 179.194723a132.593952 132.593952 0 0 0-142.858439-12.164341 131.248222 131.248222 0 0 0-120.218516-77.498196 131.274609 131.274609 0 0 0-115.679977 68.078088 131.723185 131.723185 0 0 0-133.966068 11.610217 128.767858 128.767858 0 0 0-53.38061 122.303078A130.562164 130.562164 0 0 0 129.814306 378.494646a128.58315 128.58315 0 0 0 28.656126 129.955266 129.401142 129.401142 0 0 0 68.6586 218.562329 130.219135 130.219135 0 0 0 50.953019 123.279391 131.828733 131.828733 0 0 0 133.675812 14.011421 131.85512 131.85512 0 0 0 231.043312 4.538539 132.725886 132.725886 0 0 0 134.20355-8.865983 128.820631 128.820631 0 0 0 55.860974-121.062896 131.327383 131.327383 0 0 0 103.805892-85.203158 129.190047 129.190047 0 0 0-26.228535-130.614938 127.765157 127.765157 0 0 0 34.170978-128.74147z" fill="#F62C27" /><path d="M276.762708 353.321586a32.403059 32.403059 0 0 0 64.726958 0 32.350286 32.350286 0 0 0-64.726958 0M729.323676 353.321586a32.376672 32.376672 0 0 0 64.700571 0c0-11.557443-6.148137-22.217733-16.175143-27.996455a32.376672 32.376672 0 0 0-48.525428 27.996455M492.237774 310.152689a43.195283 43.195283 0 1 0 64.779732-37.363788 43.089736 43.089736 0 0 0-43.116123 0 43.116123 43.116123 0 0 0-21.663609 37.363788M648.500736 498.81871c9.710363 0 68.210023-63.803418 82.485312-80.849327 14.222515-17.019522 48.76291-14.380837 46.836669 0l-32.350285 242.46882c-8.021604 53.406997-43.670247 96.971696-96.998083 96.971696h-226.267291c-53.327836 0-88.897318-43.538312-96.971696-96.971696 0 0-30.661527-222.098167-32.323898-242.46882-1.662372-20.291492 30.292111-18.54996 46.889443 0 16.597332 18.576347 72.748562 80.849327 82.406151 80.849327 14.565545 0 80.82294-97.02447 80.82294-97.02447s12.982333-15.937661 32.323899-16.122369c19.367952-0.237482 32.350286 16.122369 32.350286 16.122369s66.257396 97.02447 80.796553 97.02447z" fill="#FED53C" /></svg>