<?xml version="1.0" standalone="no"?><!DOCTYPE svg PUBLIC "-//W3C//DTD SVG 1.1//EN" "http://www.w3.org/Graphics/SVG/1.1/DTD/svg11.dtd"><svg class="icon" height="512" viewBox="0 0 1024 1024" version="1.1" xmlns="http://www.w3.org/2000/svg"><path style="fill:#fff;" d="M480 816a1 1 0 1 0 64 0 1 1 0 1 0-64 0ZM320 192l384 0 0 544-384 0 0-544ZM512 0C230.4 0 0 230.4 0 512l0 0c0 281.6 230.4 512 512 512s512-230.4 512-512l0 0C1024 230.4 793.6 0 512 0zM736 844.8c0 54.4-38.4 51.2-38.4 51.2L326.4 896c-54.4 0-51.2-54.4-51.2-54.4l0-659.2C275.2 128 326.4 128 326.4 128l368 0C752 128 736 182.4 736 182.4L736 844.8z" /></svg>