<?xml version="1.0" standalone="no"?><!DOCTYPE svg PUBLIC "-//W3C//DTD SVG 1.1//EN" "http://www.w3.org/Graphics/SVG/1.1/DTD/svg11.dtd"><svg class="icon" height="512" viewBox="0 0 1024 1024" version="1.1" xmlns="http://www.w3.org/2000/svg"><path style="fill:#fff;" d="M512 1024c-66.56 0-138.24-15.36-199.68-40.96-61.44-25.6-117.76-61.44-163.84-107.52-46.08-46.08-81.92-102.4-107.52-163.84C15.36 650.24 0 578.56 0 512s15.36-138.24 40.96-199.68C66.56 250.88 102.4 194.56 148.48 148.48c46.08-46.08 102.4-81.92 163.84-107.52C373.76 15.36 445.44 0 512 0s138.24 15.36 199.68 40.96c61.44 25.6 117.76 61.44 163.84 107.52 46.08 46.08 81.92 102.4 107.52 163.84 25.6 61.44 40.96 133.12 40.96 199.68 0 66.56-15.36 138.24-40.96 199.68-25.6 61.44-61.44 117.76-107.52 163.84-46.08 46.08-102.4 81.92-163.84 107.52-61.44 25.6-133.12 40.96-199.68 40.96z m0-972.8c-256 0-460.8 204.8-460.8 460.8s204.8 460.8 460.8 460.8 460.8-204.8 460.8-460.8-204.8-460.8-460.8-460.8zM665.6 358.4c0-87.04-61.44-148.48-153.6-148.48s-153.6 66.56-153.6 153.6v71.68h-15.36c-40.96 0-76.8 35.84-76.8 76.8v225.28c0 40.96 35.84 76.8 76.8 76.8h337.92c40.96 0 76.8-35.84 76.8-76.8V512c0-40.96-35.84-76.8-76.8-76.8H399.36V363.52c0-66.56 46.08-117.76 112.64-117.76 66.56 0 112.64 40.96 112.64 107.52 0 0 0 15.36 20.48 15.36 15.36 5.12 20.48-10.24 20.48-10.24z m56.32 378.88c0 20.48-15.36 35.84-35.84 35.84H343.04c-20.48 0-35.84-15.36-35.84-35.84V512c0-20.48 15.36-35.84 35.84-35.84h337.92c20.48 0 35.84 15.36 35.84 35.84v225.28h5.12zM512 547.84c-20.48 0-35.84 15.36-35.84 35.84 0 15.36 5.12 25.6 20.48 30.72v61.44c0 10.24 10.24 20.48 20.48 20.48s20.48-10.24 20.48-20.48V614.4c10.24-5.12 20.48-20.48 20.48-30.72-10.24-15.36-25.6-35.84-46.08-35.84z" /></svg>